<?xml version="1.0" encoding="UTF-8" standalone="no"?>
<svg
   xmlns:dc="http://purl.org/dc/elements/1.1/"
   xmlns:cc="http://creativecommons.org/ns#"
   xmlns:rdf="http://www.w3.org/1999/02/22-rdf-syntax-ns#"
   xmlns:svg="http://www.w3.org/2000/svg"
   xmlns="http://www.w3.org/2000/svg"
   xmlns:sodipodi="http://sodipodi.sourceforge.net/DTD/sodipodi-0.dtd"
   xmlns:inkscape="http://www.inkscape.org/namespaces/inkscape"
   version="1.0"
   width="114.4"
   height="40"
   viewBox="0 0 114.4 40.000001"
   id="svg1936"
   inkscape:version="1.0.2-2 (e86c870879, 2021-01-15)"
   sodipodi:docname="Amazon.com-Logo.svg">
  <metadata
     id="metadata21">
    <rdf:RDF>
      <cc:Work
         rdf:about="">
        <dc:format>image/svg+xml</dc:format>
        <dc:type
           rdf:resource="http://purl.org/dc/dcmitype/StillImage" />
        <dc:title></dc:title>
      </cc:Work>
    </rdf:RDF>
  </metadata>
  <sodipodi:namedview
     pagecolor="#ffffff"
     bordercolor="#666666"
     borderopacity="1"
     objecttolerance="10"
     gridtolerance="10"
     guidetolerance="10"
     inkscape:pageopacity="0"
     inkscape:pageshadow="2"
     inkscape:window-width="1920"
     inkscape:window-height="991"
     id="namedview19"
     showgrid="false"
     inkscape:zoom="7.5786747"
     inkscape:cx="59.440624"
     inkscape:cy="24.906072"
     inkscape:window-x="-9"
     inkscape:window-y="-9"
     inkscape:window-maximized="1"
     inkscape:current-layer="svg1936"
     inkscape:document-rotation="0" />
  <defs
     id="defs1938" />
  <g
     id="g843"
     transform="matrix(0.1144,0,0,0.1144,1.4204947e-6,13.435654)">
    <path
       d="M 402.46213,152.88634 C 364.76308,180.67353 310.1206,195.499 263.07446,195.499 c -65.9663,0 -125.35289,-24.39849 -170.281138,-64.97793 -3.529868,-3.19103 -0.367119,-7.53982 3.868745,-5.0548 48.486343,28.21077 108.437743,45.18241 170.365863,45.18241 41.76544,0 87.71029,-8.64115 129.95583,-26.5729 6.38201,-2.71096 11.71918,4.17937 5.47837,8.81056"
       id="path8"
       style="fill:#d0d0d5;fill-opacity:1;fill-rule:evenodd;stroke:none"
       inkscape:connector-curvature="0" />
    <path
       d="m 418.13478,134.95459 c -4.80065,-6.1561 -31.8536,-2.90862 -43.99636,-1.46843 -3.69932,0.45183 -4.26408,-2.76742 -0.9319,-5.08303 21.54636,-15.16434 56.90159,-10.78729 61.02448,-5.70428 4.12288,5.11127 -1.07308,40.55122 -21.32045,57.46636 -3.10629,2.59798 -6.07138,1.21429 -4.68766,-2.23088 4.54647,-11.35208 14.74076,-36.7954 9.91189,-42.97974"
       id="path10"
       style="fill:#d0d0d5;fill-opacity:1;fill-rule:evenodd;stroke:none"
       inkscape:connector-curvature="0" />
  </g>
  <g
     id="g883"
     transform="translate(0,-0.7019215)">
    <path
       d="m 42.898353,16.537738 v -1.686342 c 0,-0.255213 0.193832,-0.426431 0.426432,-0.426431 h 7.549772 c 0.242292,0 0.436124,0.174449 0.436124,0.426431 v 1.444052 c -0.0032,0.24229 -0.206755,0.558883 -0.568577,1.059617 l -3.912183,5.585605 c 1.453744,-0.03553 2.988251,0.18091 4.306312,0.923936 0.297209,0.167987 0.377973,0.413508 0.400586,0.655801 v 1.799411 c 0,0.245521 -0.271366,0.533036 -0.555653,0.384433 -2.322759,-1.217915 -5.407926,-1.350367 -7.976206,0.01292 -0.261673,0.142144 -0.536268,-0.142143 -0.536268,-0.387665 V 24.62055 c 0,-0.274596 0.0032,-0.743026 0.277824,-1.159766 l 4.53245,-6.499848 h -3.944491 c -0.24229,0 -0.436122,-0.171217 -0.436122,-0.423201"
       id="path12"
       style="fill:#d0d0d5;fill-opacity:1;fill-rule:evenodd;stroke:none;stroke-width:0.1144"
       inkscape:connector-curvature="0" />
    <path
       d="M 15.357991,27.05961 H 13.061077 C 12.841401,27.04346 12.666952,26.878701 12.650798,26.668714 V 14.880473 c 0,-0.23583 0.197064,-0.423203 0.442584,-0.423203 h 2.141849 c 0.222909,0.0097 0.400586,0.18091 0.41674,0.394126 v 1.54097 h 0.042 c 0.558883,-1.489281 1.608807,-2.183848 3.023785,-2.183848 1.437591,0 2.335681,0.694567 2.981789,2.183848 0.555654,-1.489281 1.818794,-2.183848 3.172392,-2.183848 0.962702,0 2.015858,0.397357 2.658735,1.288986 0.726872,0.991776 0.578266,2.432597 0.578266,3.69574 l -0.0032,7.439936 c 0,0.235829 -0.197063,0.42643 -0.442584,0.42643 H 25.36944 c -0.229366,-0.01615 -0.413506,-0.200292 -0.413506,-0.42643 v -6.247867 c 0,-0.497503 0.04522,-1.738031 -0.06461,-2.209691 -0.171218,-0.79148 -0.684874,-1.01439 -1.350368,-1.01439 -0.555653,0 -1.137149,0.371513 -1.372979,0.965934 -0.23583,0.594419 -0.213216,1.589424 -0.213216,2.258147 v 6.247867 c 0,0.235829 -0.197063,0.42643 -0.442585,0.42643 h -2.293682 c -0.232599,-0.01615 -0.41351,-0.200292 -0.41351,-0.42643 l -0.0032,-6.247867 c 0,-1.314829 0.216443,-3.249925 -1.414977,-3.249925 -1.650808,0 -1.586197,1.886635 -1.586197,3.249925 v 6.247867 c 0,0.235829 -0.197064,0.42643 -0.442584,0.42643"
       id="path14"
       style="fill:#d0d0d5;fill-opacity:1;fill-rule:evenodd;stroke:none;stroke-width:0.1144"
       inkscape:connector-curvature="0" />
    <path
       d="m 57.81053,14.208518 c 3.408221,0 5.252858,2.92687 5.252858,6.648454 0,3.595591 -2.038473,6.448158 -5.252858,6.448158 -3.346842,0 -5.168868,-2.92687 -5.168868,-6.574149 0,-3.669895 1.84464,-6.522463 5.168868,-6.522463 m 0.01938,2.406755 c -1.692802,0 -1.799411,2.306604 -1.799411,3.744196 0,1.440821 -0.02261,4.516296 1.780029,4.516296 1.780028,0 1.864022,-2.481054 1.864022,-3.99295 0,-0.995005 -0.042,-2.183844 -0.342439,-3.127163 -0.258443,-0.820555 -0.772097,-1.140379 -1.502201,-1.140379"
       id="path16"
       style="fill:#d0d0d5;fill-opacity:1;fill-rule:evenodd;stroke:none;stroke-width:0.1144"
       inkscape:connector-curvature="0" />
    <path
       d="m 67.482769,27.05961 h -2.287222 c -0.22937,-0.01615 -0.413511,-0.200292 -0.413511,-0.42643 l -0.0032,-11.791476 c 0.01938,-0.216446 0.209987,-0.384434 0.442585,-0.384434 h 2.128928 c 0.200291,0.0097 0.365049,0.145375 0.410278,0.329516 v 1.802641 h 0.042 c 0.64288,-1.61204 1.544198,-2.380909 3.130394,-2.380909 1.030543,0 2.035241,0.371513 2.68135,1.389133 0.60088,0.943318 0.60088,2.529515 0.60088,3.669893 v 7.420555 c -0.02584,0.206753 -0.216446,0.371511 -0.442582,0.371511 h -2.303376 c -0.209987,-0.01615 -0.384437,-0.171217 -0.407048,-0.371511 v -6.402932 c 0,-1.288986 0.148604,-3.175624 -1.437593,-3.175624 -0.558882,0 -1.072539,0.374745 -1.327751,0.943319 -0.323053,0.720412 -0.365051,1.437592 -0.365051,2.232305 v 6.348013 c -0.0032,0.235829 -0.203523,0.42643 -0.449044,0.42643"
       id="path18"
       style="fill:#d0d0d5;fill-opacity:1;fill-rule:evenodd;stroke:none;stroke-width:0.1144"
       inkscape:connector-curvature="0" />
    <path
       d="m 75.652807,26.122755 c 0,-0.594421 0.507194,-1.07254 1.130687,-1.07254 0.623495,0 1.130689,0.478119 1.130689,1.07254 0,0.591187 -0.507194,1.075769 -1.130689,1.075769 -0.623493,0 -1.130687,-0.484582 -1.130687,-1.075769"
       id="path20"
       style="fill:#d0d0d5;fill-opacity:1;fill-rule:evenodd;stroke:none;stroke-width:0.1144"
       inkscape:connector-curvature="0" />
    <path
       d="m 99.988469,27.062841 c -0.239059,-0.0097 -0.42643,-0.193832 -0.42643,-0.42643 V 14.848167 c 0.01292,-0.209987 0.190602,-0.374744 0.410278,-0.387664 h 0.843173 c 0.2326,0 0.41997,0.167986 0.43935,0.387664 v 1.718648 c 0.60088,-1.36329 1.71865,-2.429368 3.1304,-2.429368 h 0.0872 0.084 c 1.49898,0 2.59413,1.104844 3.00118,2.710423 0.63641,-1.586195 1.83171,-2.710423 3.40822,-2.710423 h 0.0808 0.0937 c 1.11453,0 2.18707,0.71718 2.74273,1.809102 0.53627,1.043465 0.51688,2.432597 0.51688,3.598822 l -0.003,7.09104 c 0.003,0.226135 -0.18091,0.410276 -0.41028,0.42643 h -1.00793 c -0.21968,-0.0097 -0.39736,-0.164757 -0.42643,-0.368281 v -7.149189 c 0,-0.843169 0.042,-1.738031 -0.30044,-2.506899 -0.3489,-0.785021 -1.01762,-1.276064 -1.7348,-1.311598 -0.80118,0.03876 -1.53774,0.623495 -2.01586,1.411747 -0.62026,1.017618 -0.59765,1.935091 -0.59765,3.123932 v 6.438466 c -0.0291,0.193833 -0.20029,0.345668 -0.41028,0.361822 h -1.00147 c -0.23906,-0.0097 -0.42966,-0.193832 -0.42966,-0.42643 l -0.006,-7.562699 c 0,-0.694566 -0.042,-1.511893 -0.36182,-2.135387 -0.37151,-0.710717 -1.03701,-1.175917 -1.7348,-1.211451 -0.72364,0.042 -1.45375,0.59442 -1.88664,1.237297 -0.55888,0.820555 -0.66549,1.834945 -0.66549,2.878411 v 6.793829 c 0,0.226135 -0.18414,0.410276 -0.41351,0.42643 h -1.004696"
       id="path22"
       style="fill:#d0d0d5;fill-opacity:1;fill-rule:evenodd;stroke:none;stroke-width:0.1144"
       inkscape:connector-curvature="0" />
    <path
       d="m 93.068651,27.308363 c -3.259615,0 -4.71982,-3.324228 -4.71982,-6.648454 0,-3.495446 1.715418,-6.522462 4.997647,-6.522462 h 0.08399 0.09046 c 3.191774,0 4.781201,3.224081 4.781201,6.548307 0,3.521288 -1.760645,6.622609 -5.062258,6.622609 h -0.08399 -0.08723 m 0.239061,-1.61204 c 1.072539,-0.03554 1.91894,-0.701029 2.419675,-1.809102 0.449046,-0.995008 0.536269,-2.13539 0.536269,-3.227312 0,-1.188841 -0.129221,-2.429366 -0.688105,-3.446988 -0.500734,-0.888399 -1.360058,-1.453741 -2.27107,-1.486047 -1.01439,0.03553 -1.922171,0.72364 -2.377678,1.783257 -0.410278,0.917475 -0.536269,2.135387 -0.536269,3.149778 0,1.140381 0.148604,2.458442 0.620263,3.450219 0.458737,0.940087 1.340674,1.550658 2.296915,1.586195"
       id="path24"
       style="fill:#d0d0d5;fill-opacity:1;fill-rule:evenodd;stroke:none;stroke-width:0.1144"
       inkscape:connector-curvature="0" />
    <path
       d="m 82.882756,25.644635 c 1.463435,-0.04523 2.232304,-1.217914 2.548897,-2.73627 0.06461,-0.190602 0.209986,-0.335976 0.423201,-0.335976 l 0.965932,-0.0032 c 0.229367,0.0097 0.439353,0.184141 0.41997,0.397359 -0.445815,2.587661 -2.006165,4.341846 -4.228778,4.341846 h -0.09045 -0.084 c -3.237003,0 -4.632595,-3.249924 -4.632595,-6.548308 0,-3.272535 1.414977,-6.622608 4.651978,-6.622608 h 0.08722 0.08723 c 2.248457,0 3.850805,1.73157 4.199703,4.319235 0,0.193832 -0.180911,0.361818 -0.394126,0.384432 l -1.011159,-0.01292 c -0.213215,-0.02907 -0.35213,-0.209984 -0.384435,-0.413508 -0.24229,-1.444053 -1.072539,-2.594123 -2.455211,-2.639353 -2.2,0.07107 -2.826722,2.778265 -2.826722,4.861963 0,2.006167 0.523348,4.936269 2.723345,5.007341"
       id="path26"
       style="fill:#d0d0d5;fill-opacity:1;fill-rule:evenodd;stroke:none;stroke-width:0.1144"
       inkscape:connector-curvature="0" />
    <path
       d="m 36.879855,21.428778 c 0,0.894859 0.02261,1.641114 -0.429663,2.435828 -0.36505,0.646109 -0.946548,1.043465 -1.589424,1.043465 -0.881938,0 -1.398825,-0.671954 -1.398825,-1.66373 0,-1.957707 1.754183,-2.313066 3.417912,-2.313066 v 0.497503 m 2.316298,5.598526 c -0.151834,0.135683 -0.371513,0.145374 -0.542731,0.05492 -0.762409,-0.633186 -0.901321,-0.927164 -1.318061,-1.531275 -1.259911,1.285754 -2.154772,1.670188 -3.786195,1.670188 -1.935094,0 -3.437294,-1.19207 -3.437294,-3.579437 0,-1.864024 1.00793,-3.133626 2.448751,-3.75389 1.246988,-0.549194 2.988247,-0.646108 4.319232,-0.797943 v -0.29721 c 0,-0.545963 0.042,-1.192071 -0.281057,-1.663728 -0.277826,-0.423203 -0.814098,-0.597652 -1.288986,-0.597652 -0.875478,0 -1.654036,0.449045 -1.844639,1.379441 -0.03877,0.206756 -0.190601,0.41028 -0.400588,0.419971 l -2.225842,-0.239061 c -0.187372,-0.042 -0.397356,-0.193833 -0.342437,-0.481348 0.510425,-2.700732 2.952716,-3.514831 5.136559,-3.514831 1.117768,0 2.577972,0.29721 3.45991,1.143612 1.117766,1.043464 1.011159,2.435827 1.011159,3.950952 v 3.579439 c 0,1.075772 0.445814,1.547428 0.865785,2.128928 0.145376,0.206752 0.177681,0.455504 -0.0097,0.61057 -0.468428,0.390898 -1.301909,1.117769 -1.760645,1.524817 l -0.0032,-0.0065"
       id="path28"
       style="fill:#d0d0d5;fill-opacity:1;fill-rule:evenodd;stroke:none;stroke-width:0.1144"
       inkscape:connector-curvature="0" />
    <path
       d="m 6.7679847,21.428778 c 0,0.894859 0.022612,1.641114 -0.429662,2.435828 -0.3650532,0.646109 -0.9433194,1.043465 -1.5894278,1.043465 -0.8819378,0 -1.3955928,-0.671954 -1.3955928,-1.66373 0,-1.957707 1.754183,-2.313066 3.4146826,-2.313066 v 0.497503 m 2.316297,5.598526 C 8.9324464,27.162987 8.7127678,27.172678 8.5415495,27.082224 7.7791436,26.449038 7.6434594,26.15506 7.2234891,25.550949 5.9635779,26.836703 5.0719509,27.221137 3.4372952,27.221137 1.5054308,27.221137 1.175547e-6,26.029067 1.175547e-6,23.6417 1.175547e-6,21.777676 1.0111602,20.508074 2.4487502,19.88781 3.6957387,19.338616 5.4370004,19.241702 6.7679847,19.089867 v -0.29721 c 0,-0.545963 0.041997,-1.192071 -0.2778267,-1.663728 -0.2810589,-0.423203 -0.8173268,-0.597652 -1.2889871,-0.597652 -0.8754747,0 -1.6572673,0.449045 -1.8478688,1.379441 -0.038767,0.206756 -0.1906026,0.41028 -0.3973563,0.419971 L 0.72687289,18.091628 C 0.53950114,18.049633 0.33274628,17.897795 0.38443499,17.61028 0.89809122,14.909548 3.3371487,14.095449 5.520996,14.095449 c 1.1177651,0 2.5779691,0.29721 3.459907,1.143612 1.117769,1.043464 1.011159,2.435827 1.011159,3.950952 v 3.579439 c 0,1.075772 0.445817,1.547428 0.865787,2.128928 0.148604,0.206752 0.18091,0.455504 -0.0065,0.61057 -0.468429,0.390898 -1.3019073,1.117769 -1.7606464,1.524817 l -0.00646,-0.0065"
       id="path30"
       style="fill:#d0d0d5;fill-opacity:1;fill-rule:evenodd;stroke:none;stroke-width:0.1144"
       inkscape:connector-curvature="0" />
  </g>
</svg>
