<?xml version="1.0" encoding="UTF-8" standalone="no"?>
<svg
   xmlns:dc="http://purl.org/dc/elements/1.1/"
   xmlns:cc="http://creativecommons.org/ns#"
   xmlns:rdf="http://www.w3.org/1999/02/22-rdf-syntax-ns#"
   xmlns:svg="http://www.w3.org/2000/svg"
   xmlns="http://www.w3.org/2000/svg"
   xmlns:sodipodi="http://sodipodi.sourceforge.net/DTD/sodipodi-0.dtd"
   xmlns:inkscape="http://www.inkscape.org/namespaces/inkscape"
   version="1.0"
   width="952.40302"
   height="1164.3459"
   viewBox="0 0 714.30228 873.25948"
   preserveAspectRatio="xMidYMid meet"
   id="svg10"
   sodipodi:docname="apple.svg"
   inkscape:version="1.0.2-2 (e86c870879, 2021-01-15)">
  <defs
     id="defs14" />
  <sodipodi:namedview
     pagecolor="#ffffff"
     bordercolor="#666666"
     borderopacity="1"
     objecttolerance="10"
     gridtolerance="10"
     guidetolerance="10"
     inkscape:pageopacity="0"
     inkscape:pageshadow="2"
     inkscape:window-width="1920"
     inkscape:window-height="991"
     id="namedview12"
     showgrid="false"
     inkscape:zoom="0.3993131"
     inkscape:cx="851.10061"
     inkscape:cy="853.83323"
     inkscape:window-x="-9"
     inkscape:window-y="-9"
     inkscape:window-maximized="1"
     inkscape:current-layer="svg10"
     inkscape:document-rotation="0"
     units="px" />
  <metadata
     id="metadata2">
Created by potrace 1.15, written by Peter Selinger 2001-2017
<rdf:RDF>
  <cc:Work
     rdf:about="">
    <dc:format>image/svg+xml</dc:format>
    <dc:type
       rdf:resource="http://purl.org/dc/dcmitype/StillImage" />
    <dc:title></dc:title>
  </cc:Work>
</rdf:RDF>
</metadata>
  <g
     transform="matrix(0.1,0,0,-0.1,-282.6979,1076.8556)"
     fill="#000000"
     stroke="none"
     id="g8"
     style="fill:#d0d0d5;fill-opacity:1">
    <path
       d="m 7983,10759 c -407,-47 -983,-406 -1269,-790 -165,-220 -262,-430 -346,-746 l -42,-158 2,-168 c 2,-92 7,-178 12,-192 13,-33 38,-38 214,-39 146,-1 155,0 280,37 334,97 579,243 753,450 42,51 105,119 138,153 110,108 251,348 329,556 78,209 113,403 123,679 l 6,177 -26,26 c -29,29 -45,30 -174,15 z"
       id="path4"
       style="fill:#d0d0d5;fill-opacity:1" />
    <path
       d="m 7890,8692 c -198,-10 -731,-158 -1114,-308 -232,-91 -232,-91 -278,-99 -80,-13 -276,44 -613,180 -179,71 -363,125 -635,187 -114,25 -303,28 -385,5 -33,-9 -137,-30 -231,-46 -202,-36 -316,-71 -468,-146 -459,-224 -772,-546 -1020,-1050 -110,-222 -191,-439 -251,-670 -89,-343 -91,-1001 -4,-1400 10,-49 19,-107 19,-130 0,-48 9,-84 93,-415 78,-306 70,-281 219,-655 209,-525 275,-641 702,-1230 175,-241 264,-351 393,-482 135,-138 244,-218 398,-294 174,-85 250,-104 410,-103 205,0 370,42 684,174 198,83 211,87 571,161 108,23 208,21 360,-4 52,-8 130,-20 172,-26 85,-12 171,-40 393,-129 268,-108 457,-156 655,-168 288,-18 566,110 863,395 303,293 586,694 872,1235 77,146 200,445 221,535 9,36 24,81 35,99 10,18 19,43 19,54 0,36 -73,93 -202,158 -243,125 -482,339 -643,580 -115,173 -231,432 -260,585 -49,252 -63,528 -35,720 7,50 32,155 56,235 103,347 174,486 335,658 49,51 89,98 89,102 0,17 245,222 305,255 33,19 75,48 93,66 55,54 47,75 -91,237 -185,217 -418,395 -692,528 -171,83 -289,124 -454,158 -169,36 -421,57 -581,48 z"
       id="path6"
       style="fill:#d0d0d5;fill-opacity:1" />
  </g>
</svg>
