<?xml version="1.0" encoding="UTF-8" standalone="no"?>
<svg
   xmlns:dc="http://purl.org/dc/elements/1.1/"
   xmlns:cc="http://creativecommons.org/ns#"
   xmlns:rdf="http://www.w3.org/1999/02/22-rdf-syntax-ns#"
   xmlns:svg="http://www.w3.org/2000/svg"
   xmlns="http://www.w3.org/2000/svg"
   xmlns:sodipodi="http://sodipodi.sourceforge.net/DTD/sodipodi-0.dtd"
   xmlns:inkscape="http://www.inkscape.org/namespaces/inkscape"
   version="1.0"
   width="1706.6666"
   height="559.20599"
   viewBox="0 0 1280 419.4045"
   preserveAspectRatio="xMidYMid meet"
   id="svg18"
   sodipodi:docname="google.svg"
   inkscape:version="1.0.2-2 (e86c870879, 2021-01-15)">
  <defs
     id="defs22" />
  <sodipodi:namedview
     pagecolor="#ffffff"
     bordercolor="#666666"
     borderopacity="1"
     objecttolerance="10"
     gridtolerance="10"
     guidetolerance="10"
     inkscape:pageopacity="0"
     inkscape:pageshadow="2"
     inkscape:window-width="1920"
     inkscape:window-height="991"
     id="namedview20"
     showgrid="false"
     inkscape:zoom="0.70789791"
     inkscape:cx="853.33333"
     inkscape:cy="426.66667"
     inkscape:window-x="-9"
     inkscape:window-y="-9"
     inkscape:window-maximized="1"
     inkscape:current-layer="svg18"
     inkscape:document-rotation="0"
     units="px" />
  <metadata
     id="metadata2">
Created by potrace 1.15, written by Peter Selinger 2001-2017
<rdf:RDF>
  <cc:Work
     rdf:about="">
    <dc:format>image/svg+xml</dc:format>
    <dc:type
       rdf:resource="http://purl.org/dc/dcmitype/StillImage" />
    <dc:title></dc:title>
  </cc:Work>
</rdf:RDF>
</metadata>
  <g
     transform="matrix(0.1,0,0,-0.1,2.1189497,531.93357)"
     fill="#000000"
     stroke="none"
     id="g16"
     style="fill:#d0d0d5;fill-opacity:1">
    <path
       d="M 1457,5289 C 1086,5246 750,5080 477,4804 238,4562 86,4271 23,3935 -3,3797 0,3517 29,3381 c 47,-222 125,-415 238,-586 267,-406 661,-659 1148,-736 131,-21 418,-16 557,9 549,102 955,442 1122,942 58,176 71,266 70,515 0,127 -5,244 -11,260 l -9,30 h -745 -744 v -220 -220 l 529,-3 528,-2 -7,-57 c -9,-75 -47,-205 -81,-279 -152,-332 -525,-544 -960,-544 -449,0 -832,227 -1043,620 -142,266 -171,624 -75,932 129,410 479,719 898,793 124,21 328,20 441,-4 182,-38 366,-124 496,-233 38,-32 72,-57 76,-57 13,2 303,306 303,317 0,12 -126,116 -205,169 -310,207 -722,306 -1098,262 z"
       id="path4"
       style="fill:#d0d0d5;fill-opacity:1" />
    <path
       d="m 10212,3648 3,-1543 228,-2 227,-2 v 1544 1545 h -230 -230 z"
       id="path6"
       style="fill:#d0d0d5;fill-opacity:1" />
    <path
       d="m 4285,4134 c -105,-13 -189,-29 -254,-51 -448,-149 -728,-558 -708,-1033 23,-539 417,-954 949,-999 442,-37 827,165 1026,539 178,335 158,780 -49,1091 -64,94 -189,220 -275,275 -203,130 -481,202 -689,178 z m 260,-435 c 137,-42 278,-162 343,-291 98,-193 96,-448 -3,-637 -225,-428 -832,-414 -1042,24 -87,183 -84,417 6,600 130,262 421,389 696,304 z"
       id="path8"
       style="fill:#d0d0d5;fill-opacity:1" />
    <path
       d="m 6525,4129 c -458,-48 -831,-407 -905,-872 -17,-106 -8,-319 19,-419 76,-290 243,-514 488,-654 140,-80 266,-118 437,-133 400,-35 762,135 976,458 159,239 210,585 129,881 -27,100 -105,260 -162,336 -168,221 -439,371 -730,403 -107,12 -136,12 -252,0 z m 295,-425 c 149,-42 288,-160 358,-304 145,-296 65,-658 -183,-836 -286,-203 -685,-107 -848,204 -93,176 -103,402 -28,591 110,275 414,424 701,345 z"
       id="path10"
       style="fill:#d0d0d5;fill-opacity:1" />
    <path
       d="m 8797,4129 c -107,-11 -186,-34 -296,-85 -353,-165 -581,-512 -598,-914 -13,-305 91,-576 301,-785 221,-220 512,-328 795,-295 166,19 286,73 407,183 l 64,59 v -115 c 0,-204 -27,-325 -95,-432 -196,-307 -679,-310 -908,-6 -25,34 -54,79 -63,101 -10,22 -22,40 -26,40 -5,0 -96,-37 -203,-81 l -195,-82 41,-76 c 139,-258 372,-444 644,-512 116,-29 378,-32 491,-6 454,104 704,425 743,952 7,83 11,519 11,1068 v 927 h -220 -220 v -85 -85 l -72,60 c -160,135 -372,194 -601,169 z m 278,-421 c 76,-19 178,-81 247,-149 125,-125 185,-301 176,-513 -8,-176 -58,-300 -166,-417 -145,-157 -364,-213 -565,-145 -241,81 -389,287 -404,561 -24,436 326,761 712,663 z"
       id="path12"
       style="fill:#d0d0d5;fill-opacity:1" />
    <path
       d="m 11712,4128 c -293,-41 -572,-243 -709,-513 -126,-246 -155,-571 -77,-843 117,-406 452,-679 885,-723 294,-29 567,59 795,258 52,46 164,171 172,192 2,6 -284,201 -344,234 -6,4 -33,-20 -59,-54 -115,-147 -272,-220 -470,-220 -173,0 -295,50 -398,161 -52,56 -114,147 -106,154 2,1 65,28 139,58 223,92 1255,520 1257,522 7,6 -110,260 -148,326 -62,104 -220,263 -329,329 -176,107 -395,150 -608,119 z m 293,-410 c 51,-13 110,-43 158,-80 39,-31 103,-116 94,-124 -3,-3 -164,-72 -359,-153 -194,-82 -402,-169 -461,-194 -124,-52 -124,-52 -113,46 18,174 120,335 277,437 124,80 263,104 404,68 z"
       id="path14"
       style="fill:#d0d0d5;fill-opacity:1" />
  </g>
</svg>
