<?xml version="1.0" encoding="UTF-8" standalone="no"?>
<svg
   xmlns:dc="http://purl.org/dc/elements/1.1/"
   xmlns:cc="http://creativecommons.org/ns#"
   xmlns:rdf="http://www.w3.org/1999/02/22-rdf-syntax-ns#"
   xmlns:svg="http://www.w3.org/2000/svg"
   xmlns="http://www.w3.org/2000/svg"
   xmlns:sodipodi="http://sodipodi.sourceforge.net/DTD/sodipodi-0.dtd"
   xmlns:inkscape="http://www.inkscape.org/namespaces/inkscape"
   viewBox="0 0 512 512"
   version="1.1"
   id="svg4"
   sodipodi:docname="magnifying-glass-solid.svg"
   inkscape:version="1.0.2-2 (e86c870879, 2021-01-15)">
  <metadata
     id="metadata10">
    <rdf:RDF>
      <cc:Work
         rdf:about="">
        <dc:format>image/svg+xml</dc:format>
        <dc:type
           rdf:resource="http://purl.org/dc/dcmitype/StillImage" />
      </cc:Work>
    </rdf:RDF>
  </metadata>
  <defs
     id="defs8" />
  <sodipodi:namedview
     pagecolor="#ffffff"
     bordercolor="#666666"
     borderopacity="1"
     objecttolerance="10"
     gridtolerance="10"
     guidetolerance="10"
     inkscape:pageopacity="0"
     inkscape:pageshadow="2"
     inkscape:window-width="1920"
     inkscape:window-height="991"
     id="namedview6"
     showgrid="false"
     inkscape:zoom="1.3823081"
     inkscape:cx="256"
     inkscape:cy="256"
     inkscape:window-x="-9"
     inkscape:window-y="-9"
     inkscape:window-maximized="1"
     inkscape:current-layer="svg4" />
  <!--! Font Awesome Pro 6.1.1 by @fontawesome - https://fontawesome.com License - https://fontawesome.com/license (Commercial License) Copyright 2022 Fonticons, Inc. -->
  <path
     d="m 417.46513,380.06584 -79.11325,-79.11326 c 17.9905,-26.70815 26.86678,-60.07848 22.1147,-95.63649 C 352.36358,144.83444 302.79387,95.615027 242.25274,87.950228 152.24076,76.560431 76.551117,152.25007 87.941575,242.26205 c 7.666781,60.56757 56.892805,110.17694 117.381065,118.24028 35.55801,4.75142 68.93494,-4.12156 95.63649,-22.1147 l 79.11326,79.11325 c 10.32371,10.32372 27.06506,10.32372 37.38878,0 10.31446,-10.33693 10.31446,-27.12454 0.004,-37.43504 z M 139.08165,224.28477 c 0,-46.6484 37.95057,-84.59897 84.59897,-84.59897 46.6484,0 84.59897,37.95057 84.59897,84.59897 0,46.6484 -37.95057,84.59897 -84.59897,84.59897 -46.6484,0 -84.59897,-37.93735 -84.59897,-84.59897 z"
     id="path2"
     style="stroke-width:0.6;fill:#878793;fill-opacity:1;" />
</svg>
